PathFileType	4	(X/Y/Z)	s02c0103.trc
DataRate	CameraRate	NumFrames	NumMarkers	Units	OrigDataRate	OrigDataStartFrame	OrigNumFrames
200	200	5	50	mm	200	1500	2000
Frame#	Time	racr			lacr			c7			jug			rlel			rdr			llel			ldr			s2			lic			ric			lasi			rasi			rpsi			lpsi			rgt			lgt			rth1			rth2			rth3			rth4			rlfc			rmfc			rsh1			rsh2			rsh3			rsh4			rlmal			rmmal			rtoe			rmt5			rmt1			lth1			lth2			lth4			lth3			llfc			lmfc			lsh1			lsh2			lsh3			lsh4			llmal			lmmal			lcal			ltoe			lmt5			SBIKE			LBIKE			RBIKE			
		X1	Y1	Z1	X2	Y2	Z2	X3	Y3	Z3	X4	Y4	Z4	X5	Y5	Z5	X6	Y6	Z6	X7	Y7	Z7	X8	Y8	Z8	X9	Y9	Z9	X10	Y10	Z10	X11	Y11	Z11	X12	Y12	Z12	X13	Y13	Z13	X14	Y14	Z14	X15	Y15	Z15	X16	Y16	Z16	X17	Y17	Z17	X18	Y18	Z18	X19	Y19	Z19	X20	Y20	Z20	X21	Y21	Z21	X22	Y22	Z22	X23	Y23	Z23	X24	Y24	Z24	X25	Y25	Z25	X26	Y26	Z26	X27	Y27	Z27	X28	Y28	Z28	X29	Y29	Z29	X30	Y30	Z30	X31	Y31	Z31	X32	Y32	Z32	X33	Y33	Z33	X34	Y34	Z34	X35	Y35	Z35	X36	Y36	Z36	X37	Y37	Z37	X38	Y38	Z38	X39	Y39	Z39	X40	Y40	Z40	X41	Y41	Z41	X42	Y42	Z42	X43	Y43	Z43	X44	Y44	Z44	X45	Y45	Z45	X46	Y46	Z46	X47	Y47	Z47	X48	Y48	Z48	X49	Y49	Z49	X50	Y50	Z50	
1500	7.5000	537.359571	1265.325700	-196.374927	479.667877	1291.152957	-523.796791	497.760690	1322.547990	-360.895839	422.585017	1203.492379	-352.964253	582.253334	1016.325938	-81.392606	714.238579	841.776874	-131.698542	528.356418	1015.506235	-583.433153	702.109750	857.481207	-517.604219	-6.048782	1121.362768	-288.089180	96.534184	1137.890833	-449.815822	136.793874	1105.496818	-162.900436	148.323851	1113.391708	-427.420738	184.672911	1081.903518	-196.689574	14.901927	1145.300227	-246.243834	10.513921	1163.308512	-329.009331	99.805586	1013.604063	-136.781874	78.223044	1063.193403	-490.915951	172.522502	940.110096	-126.565065	231.975096	874.992508	-128.728547	254.669078	794.622083	-108.502635	258.739850	887.711284	-152.194563	294.727237	663.305736	-146.928413	286.369760	644.861300	-252.900007	276.168850	558.413276	-125.787121	280.794845	470.735560	-140.584202	243.738224	392.471932	-136.962365	295.658730	470.011990	-177.038579	211.131142	279.316369	-143.631603	223.781459	296.439375	-222.182140	378.876216	123.696943	-191.377308	276.683745	161.337911	-130.103087	305.250906	163.647774	-236.206155	216.519387	1041.674617	-503.494624	300.716583	1039.617365	-495.778957	309.110842	1069.412577	-475.994837	377.139093	993.694617	-500.107234	473.099781	960.304537	-481.503023	481.757792	927.628552	-369.884142	437.998144	869.937645	-495.083713	409.627708	789.044606	-482.975647	342.121853	729.251351	-486.181421	430.645688	777.272874	-449.177321	266.932147	639.901744	-474.817040	289.427526	631.039133	-398.189858	191.954271	617.656931	-435.245569	439.021957	471.914675	-443.430497	335.325057	502.586649	-502.643855	-128.885900	869.993660	-312.644855	32.710399	83.143757	-514.979282	32.922700	82.153764	-114.963594	
1501	7.5050	537.282496	1265.940023	-198.184596	477.895778	1291.101383	-525.201557	496.807280	1322.767114	-362.558295	421.786405	1203.660634	-353.993782	582.711694	1017.189096	-82.238435	714.239839	841.839106	-131.820062	526.887041	1015.330582	-583.893704	701.627272	857.847832	-518.060049	-6.906956	1122.280314	-287.760187	95.868242	1138.565402	-449.549230	135.962464	1107.032932	-162.706896	147.425043	1114.427465	-426.597083	183.826889	1083.170153	-196.252491	13.912990	1147.040059	-245.982405	9.466241	1165.173228	-328.565481	99.228382	1014.752820	-136.339882	77.340308	1064.310075	-490.052430	172.085589	941.450853	-126.663158	232.178866	876.835094	-128.540285	255.681210	796.606852	-108.233978	258.858835	889.756134	-152.007149	296.689757	665.289224	-147.015978	288.491751	647.109064	-252.876476	276.386082	560.919319	-125.835945	278.875366	472.812301	-141.018809	240.091746	395.627586	-137.194832	293.648847	471.927384	-177.431294	204.639617	283.388057	-143.680262	217.551548	300.236979	-222.304844	368.421773	123.697717	-191.064066	267.179978	163.673036	-130.250276	295.695253	165.053675	-236.405158	215.334096	1041.704282	-503.144971	299.748942	1039.274237	-496.043235	308.388502	1069.336836	-476.826080	375.849764	992.741475	-499.801649	471.604943	960.168926	-481.236411	481.467077	927.958132	-369.417032	438.094185	869.582779	-494.770182	411.618407	787.888422	-482.989144	345.306778	726.785433	-486.171687	433.091595	776.404862	-449.656126	272.167989	635.047042	-474.687387	295.006917	626.900458	-398.288050	197.232560	610.764135	-435.480169	448.928125	473.297704	-443.870494	344.268114	500.446013	-502.959677	-128.999337	869.974138	-312.832457	32.719181	83.104420	-515.001966	32.909850	82.158197	-114.950389	
1502	7.5100	537.217720	1266.281690	-199.890756	476.264686	1290.739267	-526.479928	495.880025	1322.721059	-364.043907	421.146040	1203.477914	-354.928119	583.061846	1017.823274	-82.962754	714.261642	841.904667	-131.888824	525.639560	1014.982921	-584.439480	701.073868	858.146651	-518.585258	-7.642880	1123.079676	-287.783004	95.279337	1139.082281	-449.391655	135.033113	1108.261899	-162.445572	146.620792	1115.243516	-426.022814	182.953077	1084.412145	-195.939379	12.973897	1148.644102	-245.936003	7.834980	1167.042712	-327.449826	98.602190	1015.987838	-135.909819	76.516016	1065.241367	-489.407423	171.763260	942.726390	-126.772176	232.678504	878.893118	-128.332956	256.987323	798.942324	-108.133454	259.160916	892.123429	-151.813091	298.870765	667.712659	-146.928194	291.098121	649.898753	-252.909546	277.226393	563.420765	-126.327396	276.551277	475.451495	-141.678802	236.789474	399.189184	-137.472894	291.996057	474.142237	-178.066250	198.255580	287.929564	-143.784705	211.653937	304.368248	-222.561876	358.180978	124.161720	-190.943690	257.953591	166.598836	-130.440326	286.408397	167.033957	-236.386355	214.275138	1041.370265	-503.162722	298.836421	1038.153859	-496.268704	307.751611	1068.431262	-477.573395	374.392971	990.865021	-499.548886	472.183953	957.473888	-481.561414	480.943703	926.967971	-369.157018	438.057522	867.780879	-495.031031	413.251560	785.426709	-483.385447	348.103964	722.927794	-486.252429	435.179975	774.152421	-450.145317	277.082087	629.001908	-474.320320	300.095647	621.255434	-400.035818	202.684999	602.448813	-436.495161	458.551485	474.407434	-444.165297	352.894640	497.590344	-503.426407	-130.579512	869.593299	-309.755003	32.717860	83.024001	-515.049718	32.933410	82.285144	-115.044599	
1503	7.5150	537.142590	1266.216059	-201.479338	474.819076	1290.095517	-527.522703	494.987305	1322.429434	-365.385667	420.581745	1203.014566	-355.875046	583.201253	1018.162192	-83.606899	714.234200	841.935880	-131.970024	524.524265	1014.524474	-585.090801	700.571819	858.396238	-518.919097	-8.225951	1123.662948	-288.186039	94.768106	1139.442711	-449.340823	134.029251	1109.577054	-162.253307	145.911060	1115.845376	-425.681193	181.979763	1085.494196	-195.811299	11.970924	1150.097890	-246.055726	8.014850	1168.087061	-328.717545	97.936717	1017.120190	-135.515215	75.891192	1066.014900	-488.781462	171.552346	944.287591	-126.885947	233.392867	881.210467	-128.204134	258.658647	801.501026	-108.135040	259.785023	894.768324	-151.512926	301.717887	670.548394	-146.930400	293.979889	652.912317	-253.278306	278.352577	566.414679	-126.723791	275.286133	478.416149	-142.312103	233.785243	403.309951	-137.768917	290.657899	476.753839	-178.499586	192.061411	292.902029	-144.058222	206.124764	308.993729	-222.926204	347.984235	125.257002	-190.917706	248.784685	170.182165	-130.709236	277.434804	169.538918	-236.375564	213.307485	1040.590753	-503.229235	297.852321	1036.347119	-496.489841	307.171032	1066.709503	-478.225506	372.826870	988.075863	-499.364044	470.512090	954.553651	-481.520569	480.125394	924.503702	-369.175057	437.647310	864.347737	-495.084132	414.581732	781.469780	-483.918852	350.609886	717.852718	-486.497340	436.890761	770.499451	-450.587442	281.874305	622.336000	-474.978918	304.978203	615.115931	-399.781582	206.960064	592.957265	-436.988097	467.999815	475.230405	-444.703000	361.282971	493.816687	-504.251715	-130.636670	869.541617	-309.844146	32.708467	82.959316	-515.073670	32.906853	82.242350	-115.014961	
1504	7.5200	537.083680	1265.831527	-202.934315	473.582224	1289.291453	-528.331880	494.191360	1321.963324	-366.620938	420.064155	1202.400883	-356.829675	583.211025	1018.203103	-84.261826	714.119264	841.986775	-132.075816	523.396628	1013.874443	-585.867364	699.886874	858.501819	-519.220778	-8.644336	1124.113791	-288.754869	94.335187	1139.647687	-449.394430	132.944200	1110.931563	-162.111598	145.295796	1116.238686	-425.555513	180.997236	1086.633494	-195.543873	11.283399	1151.319457	-246.376164	7.220654	1168.990621	-329.207229	97.273176	1018.283943	-135.061465	75.374818	1066.505310	-488.090467	171.531463	946.091939	-126.421605	234.258719	883.760371	-128.129753	260.611710	804.170257	-108.270079	260.585860	897.732106	-151.291943	304.909956	673.616514	-147.125567	297.238988	656.195557	-253.679522	279.907417	569.486169	-127.182926	274.362665	481.564810	-142.877121	231.074807	407.711689	-138.117867	289.550171	479.659698	-179.159449	186.003586	298.485003	-144.247361	200.472644	314.174307	-223.316950	337.894449	126.846806	-190.910834	239.768082	174.361097	-130.979265	268.300651	172.792647	-236.696394	212.170225	1039.166135	-502.886437	296.855035	1033.776087	-496.572219	306.702047	1064.188260	-478.687058	371.169923	984.467713	-499.300658	469.222406	950.339914	-481.575633	478.944498	920.689495	-369.307688	437.130100	859.595115	-495.272519	415.727789	776.308260	-484.508306	352.840890	711.422934	-486.787983	438.208921	765.648132	-451.132616	286.077391	614.436169	-474.788967	309.056440	607.925457	-399.660794	211.102170	582.666333	-437.698309	477.180551	474.934452	-444.904985	369.595361	489.091979	-505.073820	-129.074528	869.889420	-312.986344	32.693323	82.859005	-515.096284	32.899126	82.312485	-115.100832	
